<svg width="1920" height="1080" viewBox="0 0 1920 1080" xmlns="http://www.w3.org/2000/svg"><rect width="1920" height="1080" fill="#3d1053"/><path d="M1446,540.9999999999999C1429.7920209663803,625.9379071550024,1320.4934229305054,750.2833420900741,1272.3162155723135,821.3390750749963C1224.1390082141215,892.3948080599185,1213.6085616208711,950.7037150785311,1156.9367558508488,967.3343979095332C1100.2649500808266,983.9650807405353,1007.8893953065506,934.6643536360284,932.2853809521794,921.123172061009C856.6813665978082,907.5819904859895,769.6555395710723,924.9778953731438,703.3126697246217,886.0873084594162C636.9697998781712,847.1967215456887,546.8526283076031,764.1516057635771,534.2281618734762,687.7796505786433C521.6036954393493,611.4076953937096,601.385119811336,486.5458895147528,627.5658711198603,427.8555773498136C653.7466224283845,369.1652651848744,641.2472611150947,361.08804346024715,691.3126697246216,335.6377775890082C741.3780783341485,310.1875117177692,852.601654512605,303.9826780388032,927.9583227770216,275.15398212237966C1003.3149910414382,246.32528620595608,1069.8517181449527,156.5726604200331,1143.452679311121,162.66560209046668C1217.0536404772895,168.75854376090027,1319.139536325885,248.65589916005894,1369.5640897740316,311.71163214498114C1419.988643222178,374.76736512990334,1462.2079790336197,456.0620928449973,1446,540.9999999999999C1429.7920209663803,625.9379071550024,1320.4934229305054,750.2833420900741,1272.3162155723135,821.3390750749963" fill="#fafafa"/></svg>